===================================================================================
                 Sex.And.The.City.V2.New.Audio.CAM.XviD-PrisM
                 --------------------------------------------


Description


Plot:

Two years have passed since Carrie Bradshaw finally bagged John "Mr. Big" Preston, the man she was always meant to be with. Just as her friend Charlotte must deal with her young daughter's "terrible two's", Carrie must deal with her relationship taking a turn for the worse - Big likes to watch old black-and-white movies on TV and eat take-out food, which prevents Carrie from feeling like the free-wheeling party girl she used to be. Meanwhile, Miranda copes with a new boss that can't handle an intelligent, powerful woman, and Samantha works a public relations angle that gets the fashionable foursome an all-expense-paid trip to Abu Dhabi.

 

MOVIEmeter: Up 100% in popularity this week. 
http://www.imdb.com/title/tt1261945/
Director:Michael Patrick King
Genre:Comedy | Drama | Romance

 
----------------------------------------------


Video


ID : 0
Format : MPEG-4 Visual
Format profile : Simple@L3
Format settings, BVOP : No
Format settings, QPel : No
Format settings, GMC : No warppoints
Format settings, Matrix : Default (H.263)
Codec ID : XVID
Codec ID/Hint : XviD
Duration : 2h 16mn
Bit rate : 1 288 Kbps
Width : 656 pixels
Height : 328 pixels
Display aspect ratio : 2.000
Frame rate : 25.000 fps
Resolution : 8 bits
Colorimetry : 4:2:0
Scan type : Progressive
Bits/(Pixel*Frame) : 0.239
Stream size : 1.23 GiB (90%)
Writing library : XviD 1.2.1 (UTC 2008-12-04)


-----------------------------------------------


Audio


ID : 1
Format : MPEG Audio
Format version : Version 1
Format profile : Layer 3
Mode : Joint stereo
Format_Settings_ModeExtension : MS Stereo
Codec ID : 55
Codec ID/Hint : MP3
Duration : 2h 16mn
Bit rate mode : Variable
Bit rate : 128 Kbps
Channel(s) : 2 channels
Sampling rate : 44.1 KHz
Stream size : 125 MiB (9%)
Alignment : Aligned on interleaves
Interleave, duration : 26 ms (0.65 video frame)
Interleave, preload duration : 65 ms
Title : Untitled
Writing library : LAME3.90.
Encoding settings : -m j -V 4 -q 2 -lowpass 17.6 --abr 128


-----------------------------------------------------------


Screenshots:

 
http://postimg.com/image/17000/16451.jpg
 
http://postimg.com/image/17000/16452.jpg



===================================================================================